<svg width="350" height="350" viewBox="0 0 350 350" fill="none" xmlns="http://www.w3.org/2000/svg">
<rect width="350" height="350" rx="35" fill="#0959A3"/>
<path d="M62.5195 229V144.918H33.3691V123.312H118.477V144.918H89.3994V229H62.5195ZM195.747 143.673C196.821 143.673 198.652 143.844 201.24 144.186C203.828 144.527 206.66 145.504 209.736 147.115C212.861 148.678 215.693 151.29 218.232 154.952C218.086 155.099 217.378 155.636 216.108 156.563C214.839 157.442 213.423 158.761 211.86 160.519C210.298 162.228 208.931 164.425 207.759 167.11C206.587 169.747 206.001 172.896 206.001 176.559C206.001 180.758 206.733 184.322 208.198 187.252C209.712 190.182 211.445 192.55 213.398 194.356C215.4 196.114 217.158 197.408 218.672 198.238C220.234 199.068 221.064 199.508 221.162 199.557C221.113 199.752 220.479 201.485 219.258 204.757C218.086 208.028 216.133 211.666 213.398 215.67C211.006 219.137 208.418 222.335 205.635 225.265C202.9 228.194 199.604 229.659 195.747 229.659C193.159 229.659 191.035 229.293 189.375 228.561C187.715 227.779 186.006 227.022 184.248 226.29C182.49 225.509 180.122 225.118 177.144 225.118C174.263 225.118 171.846 225.509 169.893 226.29C167.988 227.071 166.157 227.853 164.399 228.634C162.69 229.415 160.664 229.806 158.32 229.806C154.756 229.806 151.631 228.39 148.945 225.558C146.26 222.726 143.501 219.332 140.669 215.377C137.397 210.689 134.59 204.977 132.246 198.238C129.951 191.451 128.804 184.615 128.804 177.73C128.804 170.357 130.195 164.181 132.979 159.2C135.762 154.171 139.326 150.387 143.672 147.848C148.066 145.26 152.607 143.966 157.295 143.966C159.785 143.966 162.129 144.381 164.326 145.211C166.523 145.992 168.574 146.798 170.479 147.628C172.432 148.458 174.189 148.873 175.752 148.873C177.266 148.873 179.023 148.434 181.025 147.555C183.027 146.676 185.273 145.821 187.764 144.991C190.254 144.112 192.915 143.673 195.747 143.673ZM191.719 134.371C189.814 136.666 187.422 138.595 184.541 140.157C181.66 141.671 178.926 142.428 176.338 142.428C175.801 142.428 175.288 142.379 174.8 142.281C174.751 142.135 174.702 141.866 174.653 141.476C174.604 141.085 174.58 140.67 174.58 140.23C174.58 137.301 175.215 134.469 176.484 131.734C177.754 128.951 179.194 126.656 180.806 124.85C182.856 122.408 185.444 120.382 188.569 118.771C191.694 117.159 194.673 116.305 197.505 116.207C197.651 116.842 197.725 117.599 197.725 118.478C197.725 121.407 197.163 124.264 196.04 127.047C194.917 129.781 193.477 132.223 191.719 134.371ZM258.809 229V144.918H229.658V123.312H314.766V144.918H285.688V229H258.809Z" fill="white"/>
</svg>
